<?xml version="1.0" encoding="UTF-8"?>
<svg id="Capa_1" data-name="Capa 1" xmlns="http://www.w3.org/2000/svg" viewBox="0 0 23.85 23.85">
  <defs>
    <style>
      .cls-1 {
        fill: #5cedf2;
      }
    </style>
  </defs>
  <path class="cls-1" d="m15.39,5.44c.83-.83,1.56-1.55,2.31-2.29-.35-.35-.7-.7-1.06-1.04-.53-.51-.85-1.1-.68-1.87.06-.25.16-.29.37-.19.14.07.27.16.41.2.22.07.26.2.27.42.02.2.12.43.26.58.54.58,1.11,1.13,1.67,1.69,1.14,1.15,2.29,2.3,3.44,3.44.24.24.48.5.89.41.07-.01.2.06.23.13.13.27.22.56.34.86-.73.24-1.34.11-1.85-.37-.45-.42-.86-.87-1.31-1.33-.74.77-1.45,1.51-2.18,2.28.44.45.93.96,1.42,1.46.17.18.35.35.51.54.2.22.18.45-.01.67-.19.21-.41.21-.64.08-.14-.08-.27-.19-.43-.3-.13.13-.26.27-.39.4-2.9,2.91-5.81,5.81-8.7,8.72-.82.83-1.76,1.43-2.93,1.48-.62.03-1.26-.1-1.89-.2-.22-.04-.36-.03-.52.14-.6.62-1.19,1.25-1.84,1.83-.3.27-.69.45-1.06.6-.28.12-.58.04-.81-.2-.27-.28-.54-.56-.83-.82-.43-.38-.48-.83-.24-1.31.13-.26.3-.51.5-.72.6-.62,1.21-1.23,1.83-1.83.16-.15.2-.29.13-.5-.55-1.84-.12-3.42,1.24-4.77,1.86-1.85,3.72-3.71,5.58-5.57,1.13-1.13,2.25-2.26,3.39-3.39.17-.17.15-.28.02-.45-.16-.21-.32-.42-.14-.7.2-.31.53-.38.82-.11.49.46.96.95,1.42,1.44.18.19.32.41.46.6Zm-3.71,11.46c.71-.71,1.32-1.32,1.98-1.98-.33-.31-.69-.63-1.03-.97-.2-.2-.33-.46-.08-.72.26-.28.48-.27.8.01.36.32.7.66,1.04.98.61-.63,1.21-1.24,1.83-1.87-.02-.02-.09-.1-.16-.18-.29-.31-.6-.61-.88-.93-.17-.19-.22-.42,0-.63.21-.2.42-.31.68-.08.13.12.28.22.4.35.24.26.47.52.71.79.59-.6,1.12-1.13,1.63-1.65-1.59-1.59-3.2-3.2-4.82-4.83-.2.19-.41.37-.61.57-1.18,1.19-2.36,2.39-3.55,3.58-1.7,1.71-3.42,3.41-5.12,5.13-1.56,1.58-1.44,3.89.28,5.23,1.05.81,2.22.87,3.51.46-.31-.34-.59-.62-.84-.92-.32-.37-.32-.57-.05-.83.23-.21.47-.18.81.13.19.18.38.36.56.54.41.4.42.4.84,0,.48-.45.95-.91,1.48-1.42-.4-.38-.75-.67-1.06-1.01-.13-.14-.24-.38-.21-.55.09-.45.58-.57.9-.25.35.35.67.73.96,1.06Zm6.82-12.93c-.72.7-1.4,1.37-2.08,2.04-.05.05-.04.22.02.28.35.38.72.75,1.1,1.11.06.05.24.07.28.02.69-.68,1.36-1.37,2.02-2.03-.45-.48-.9-.96-1.34-1.42ZM3.27,19.59c-.4.38-.73.69-1.05,1-.33.32-.66.65-.96.99-.29.33-.25.74.03,1.02.26.25.67.22.98-.09.59-.57,1.18-1.15,1.77-1.74.05-.05.08-.21.05-.26-.27-.33-.56-.63-.82-.92Z"/>
  <path class="cls-1" d="m6.43,15.66c-.43,0-.69-.28-.61-.61.03-.13.11-.27.2-.36,1.39-1.4,2.79-2.79,4.2-4.17.12-.12.39-.19.54-.15.15.05.3.27.35.44.03.14-.05.36-.16.47-1.38,1.39-2.77,2.78-4.16,4.16-.12.12-.28.19-.35.23Z"/>
  <path class="cls-1" d="m12,9.98c-.29,0-.51-.22-.5-.52,0-.3.22-.49.53-.49.3,0,.5.22.51.52,0,.29-.22.49-.53.49Z"/>
</svg>